<?xml version="1.0" encoding="iso-8859-1"?>
<!-- Generator: Adobe Illustrator 19.0.0, SVG Export Plug-In . SVG Version: 6.00 Build 0)  -->
<svg xmlns="http://www.w3.org/2000/svg" xmlns:xlink="http://www.w3.org/1999/xlink" version="1.1" id="Capa_1" x="0px" y="0px" viewBox="0 0 511.999 511.999" style="enable-background:new 0 0 511.999 511.999;" xml:space="preserve" width="512px" height="512px">
<g>
	<g>
		<path d="M465.053,375.316c-13.182-17.623-31.302-30.227-52.407-36.454l-19.426-6.057c-7.932-28.058-31.36-45.488-66.35-49.714    c19.632-15.174,34.286-36.485,41.063-61.035h4.543c13.708,0,24.861-11.152,24.861-24.861v-19.233c0-2.826-0.48-5.54-1.353-8.073    c0.464,0.028,0.929,0.062,1.39,0.062c11.902,0,22.215-9.091,23.478-21.134c0.665-6.341-1.2-12.545-5.251-17.47    c-4.045-4.917-9.762-7.939-16.099-8.508c-11.039-0.992-22.097-1.856-33.168-2.618l-7.194-35.988    c-0.813-4.065-4.766-6.702-8.831-5.889c-4.066,0.813-6.701,4.766-5.889,8.831l6.406,32.047c-0.82-0.049-1.641-0.089-2.461-0.137    c-1.828-0.105-3.656-0.206-5.485-0.305c-4.304-0.233-8.611-0.451-12.921-0.65c-0.868-0.04-1.735-0.087-2.603-0.125    c-5.122-0.228-10.249-0.422-15.377-0.601c-1.447-0.05-2.893-0.098-4.34-0.144c-4.898-0.157-9.797-0.298-14.699-0.41    c-0.405-0.009-0.811-0.022-1.216-0.031c-5.229-0.116-10.46-0.198-15.691-0.263c-1.396-0.017-2.793-0.033-4.189-0.046    c-5.152-0.051-10.304-0.085-15.456-0.086c-0.258,0-0.516,0-0.775,0c-5.155,0.001-10.309,0.036-15.463,0.086    c-1.394,0.014-2.788,0.029-4.182,0.046c-5.234,0.065-10.468,0.147-15.699,0.263c-0.398,0.009-0.795,0.022-1.192,0.031    c-4.911,0.113-9.819,0.253-14.725,0.411c-1.442,0.046-2.884,0.094-4.326,0.144c-5.131,0.179-10.261,0.374-15.386,0.601    c-0.864,0.038-1.727,0.085-2.59,0.124c-4.313,0.199-8.623,0.417-12.93,0.65c-1.83,0.099-3.659,0.2-5.488,0.305    c-0.819,0.047-1.639,0.088-2.458,0.136l17.581-87.956c0.987-4.937,4.17-9.34,8.962-12.398c5.601-3.573,12.467-4.737,18.839-3.194    l5.821,1.41c28.538,6.914,58.707,6.914,87.247,0l5.821-1.41c6.373-1.543,13.237-0.38,18.839,3.194    c4.793,3.057,7.975,7.461,8.962,12.398l4.267,21.347c0.812,4.065,4.766,6.7,8.831,5.889c4.066-0.813,6.701-4.766,5.889-8.831    l-4.267-21.347c-1.795-8.982-7.339-16.834-15.607-22.11c-9.028-5.76-20.126-7.628-30.448-5.128l-5.821,1.41    c-26.228,6.353-53.953,6.353-80.179,0l-5.821-1.41c-10.322-2.502-21.42-0.631-30.448,5.128    c-8.269,5.276-13.813,13.128-15.608,22.11l-18.369,91.897c-11.07,0.762-22.129,1.626-33.167,2.618    c-6.337,0.569-12.055,3.591-16.1,8.508c-4.051,4.925-5.916,11.129-5.251,17.47c1.312,12.509,12.397,21.822,24.863,21.085    c-0.869,2.529-1.348,5.238-1.348,8.059v19.233c0,13.708,11.152,24.861,24.861,24.861h4.543    c6.776,24.546,21.427,45.854,41.054,61.028c-34.987,4.218-58.409,21.662-66.34,49.721l-19.427,6.057    c-33.408,9.86-59.851,36.849-69.014,70.447c-1.091,4,1.267,8.126,5.266,9.216c4.001,1.089,8.125-1.267,9.216-5.266    c7.809-28.633,30.352-51.629,58.831-60.014c0.038-0.011,0.076-0.023,0.114-0.035l15.99-4.986c0.066,0.051,0.133,0.101,0.201,0.15    l57.495,41.259l-5.554,28.324c-0.427,2.177,0.131,4.433,1.526,6.159l58.841,72.874h-114.34v-74.27c0-4.144-3.36-7.504-7.504-7.504    c-4.144,0-7.504,3.36-7.504,7.504v74.27H42.922c-0.624,0-1.131-0.507-1.131-1.13v-48.794c0-4.145-3.36-7.506-7.506-7.506    c-4.146,0-7.506,3.36-7.506,7.506v48.794c0,8.901,7.241,16.141,16.142,16.141h426.157c8.901,0,16.142-7.241,16.142-16.141v-59.912    C485.22,413.921,478.246,392.955,465.053,375.316z M382.327,197.195h-0.001c0,5.431-4.418,9.85-9.85,9.85h-1.452    c0.011-0.083,0.019-0.167,0.03-0.25c0.329-2.437,0.583-4.898,0.757-7.38c0.018-0.255,0.032-0.511,0.049-0.767    c0.061-0.964,0.111-1.931,0.149-2.901c0.012-0.314,0.026-0.628,0.036-0.942c0.037-1.201,0.062-2.404,0.062-3.614v-23.078h0.37    c5.432,0,9.85,4.418,9.85,9.85V197.195z M139.524,207.043v0.002c-5.431,0-9.85-4.418-9.85-9.85v-19.233    c0-5.431,4.418-9.85,9.85-9.85h0.37v23.078c0,1.21,0.025,2.415,0.062,3.616c0.01,0.312,0.023,0.623,0.036,0.935    c0.038,0.972,0.087,1.94,0.149,2.906c0.016,0.255,0.031,0.511,0.049,0.766c0.175,2.482,0.428,4.943,0.757,7.38    c0.011,0.083,0.019,0.167,0.03,0.25H139.524z M146.888,152.412c-0.033,0.002-0.064,0.009-0.097,0.011    c-10.483,0.728-20.955,1.545-31.408,2.484c-4.639,0.416-8.82-3.017-9.306-7.654c-0.242-2.311,0.437-4.572,1.914-6.368    c1.471-1.788,3.549-2.887,5.851-3.094c17.263-1.551,34.57-2.811,51.906-3.795c1.732-0.099,3.468-0.183,5.201-0.276    c3.645-0.195,7.292-0.381,10.939-0.55c1.888-0.088,3.777-0.173,5.666-0.254c4.032-0.173,8.066-0.33,12.101-0.473    c1.248-0.044,2.496-0.096,3.745-0.137c5.158-0.17,10.318-0.312,15.479-0.432c1.557-0.036,3.114-0.063,4.671-0.095    c3.877-0.079,7.755-0.144,11.633-0.195c1.689-0.022,3.379-0.045,5.068-0.062c4.953-0.049,9.906-0.08,14.86-0.083    c0.591,0,1.182,0,1.773,0c4.956,0.003,9.912,0.034,14.868,0.083c1.687,0.017,3.374,0.04,5.061,0.062    c3.882,0.051,7.764,0.116,11.646,0.195c1.553,0.032,3.106,0.059,4.659,0.095c5.164,0.12,10.327,0.262,15.488,0.432    c1.243,0.041,2.484,0.093,3.726,0.137c4.041,0.143,8.08,0.3,12.119,0.474c1.887,0.081,3.774,0.166,5.66,0.254    c3.647,0.17,7.294,0.355,10.939,0.55c1.735,0.093,3.472,0.178,5.206,0.276c17.335,0.983,34.642,2.244,51.904,3.794    c2.301,0.207,4.378,1.306,5.849,3.094c1.477,1.795,2.157,4.057,1.915,6.369c-0.487,4.638-4.669,8.075-9.306,7.654    c-10.454-0.938-20.926-1.755-31.408-2.484c-0.033-0.003-0.064-0.009-0.097-0.011c-0.194-0.014-0.388-0.025-0.581-0.038    c-2.977-0.205-5.956-0.394-8.935-0.583c-2.36-0.15-4.72-0.296-7.082-0.435c-2.724-0.16-5.449-0.316-8.175-0.461    c-2.758-0.148-5.518-0.283-8.278-0.416c-2.431-0.117-4.86-0.242-7.292-0.348c-4.824-0.21-9.651-0.399-14.48-0.565    c-2.239-0.077-4.479-0.136-6.719-0.204c-3.034-0.091-6.069-0.18-9.105-0.254c-2.452-0.06-4.905-0.111-7.357-0.159    c-2.9-0.057-5.799-0.104-8.699-0.145c-2.406-0.034-4.812-0.07-7.218-0.094c-3.501-0.034-7.002-0.048-10.504-0.059    c-3.125-0.009-6.25-0.009-9.375,0c-3.5,0.01-7,0.025-10.5,0.058c-2.407,0.023-4.814,0.06-7.222,0.094    c-2.899,0.041-5.797,0.088-8.694,0.145c-2.454,0.048-4.908,0.099-7.362,0.159c-3.033,0.074-6.064,0.162-9.095,0.254    c-2.243,0.068-4.486,0.127-6.728,0.204c-4.828,0.166-9.653,0.355-14.476,0.565c-2.434,0.106-4.866,0.231-7.3,0.348    c-2.758,0.133-5.515,0.268-8.27,0.416c-2.727,0.146-5.454,0.302-8.18,0.462c-2.361,0.139-4.72,0.286-7.079,0.435    c-2.98,0.189-5.959,0.377-8.937,0.583C147.276,152.387,147.082,152.398,146.888,152.412z M154.906,166.923    c3.45-0.224,6.901-0.436,10.354-0.637c2.877-0.168,5.756-0.322,8.635-0.474c2.994-0.157,5.988-0.311,8.983-0.451    c2.263-0.106,4.527-0.207,6.792-0.303c3.211-0.136,6.422-0.26,9.634-0.376c1.895-0.069,3.788-0.145,5.684-0.207    c4.744-0.155,9.49-0.285,14.237-0.397c1.995-0.047,3.991-0.082,5.987-0.121c3.216-0.063,6.433-0.118,9.65-0.161    c2.09-0.028,4.181-0.056,6.272-0.076c3.892-0.037,7.784-0.057,11.676-0.065c2.131-0.004,4.262-0.004,6.393,0    c3.889,0.008,7.778,0.028,11.667,0.065c2.09,0.02,4.179,0.048,6.269,0.076c3.224,0.044,6.447,0.098,9.67,0.162    c1.987,0.039,3.974,0.074,5.96,0.121c4.756,0.112,9.511,0.243,14.265,0.398c1.865,0.061,3.728,0.136,5.591,0.204    c3.254,0.118,6.507,0.243,9.759,0.381c2.227,0.095,4.454,0.194,6.68,0.298c3.066,0.143,6.132,0.301,9.197,0.462    c2.554,0.135,5.109,0.268,7.661,0.416c3.726,0.215,7.45,0.446,11.174,0.687v12.796H345.57    c-3.003-6.487-9.557-11.008-17.162-11.008h-48.846c-6.68,0-12.548,3.489-15.916,8.731c-5.013-1.028-10.173-1.026-15.19,0.006    c-3.367-5.245-9.237-8.737-15.919-8.737H183.69c-7.606,0-14.16,4.521-17.162,11.008h-11.622V166.923z M332.315,187.629v23.354    c0,2.154-1.752,3.907-3.907,3.907h-31.819c-11.544,0-20.935-9.391-20.935-20.935v-6.327c0-2.154,1.752-3.907,3.907-3.907h48.846    C330.563,183.722,332.315,185.475,332.315,187.629z M236.444,187.629v6.327c0,11.544-9.391,20.935-20.935,20.935H183.69    c-2.154,0-3.907-1.753-3.907-3.907V187.63c0-2.154,1.753-3.907,3.907-3.907h48.847    C234.691,183.722,236.444,185.475,236.444,187.629z M157.094,212.141c-0.085-0.405-0.169-0.81-0.249-1.215    c-0.081-0.408-0.159-0.816-0.235-1.225c-0.094-0.509-0.184-1.019-0.271-1.53c-0.056-0.329-0.112-0.659-0.164-0.989    c-0.094-0.593-0.182-1.188-0.266-1.783c-0.038-0.267-0.077-0.533-0.112-0.801c-0.087-0.654-0.165-1.31-0.24-1.967    c-0.025-0.223-0.053-0.446-0.077-0.67c-0.074-0.693-0.137-1.386-0.197-2.081c-0.017-0.198-0.037-0.395-0.053-0.593    c-0.057-0.709-0.102-1.418-0.144-2.128c-0.011-0.19-0.026-0.38-0.036-0.571c-0.033-0.619-0.055-1.239-0.075-1.859h9.797v16.253    c0,10.432,8.487,18.918,18.918,18.918h31.819c19.821,0,35.946-16.125,35.946-35.946v-1.799c3.034-0.625,6.156-0.626,9.188-0.003    v1.803c0,19.821,16.125,35.946,35.946,35.946h31.819c10.432,0,18.918-8.487,18.918-18.918V194.73h9.699    c-0.021,0.619-0.042,1.238-0.075,1.856c-0.01,0.196-0.026,0.39-0.037,0.586c-0.042,0.705-0.087,1.411-0.143,2.115    c-0.016,0.198-0.036,0.395-0.053,0.593c-0.06,0.694-0.123,1.388-0.197,2.081c-0.024,0.224-0.052,0.447-0.077,0.67    c-0.074,0.656-0.153,1.312-0.24,1.966c-0.036,0.27-0.075,0.538-0.113,0.807c-0.083,0.591-0.171,1.181-0.264,1.771    c-0.054,0.336-0.11,0.671-0.167,1.006c-0.086,0.506-0.175,1.011-0.268,1.516c-0.076,0.411-0.155,0.821-0.236,1.23    c-0.08,0.405-0.164,0.809-0.249,1.213c-9.133,43.168-45.893,76.259-90.84,79.824c-0.245,0.019-0.491,0.037-0.736,0.054    c-0.6,0.043-1.202,0.082-1.805,0.115c-0.464,0.025-0.93,0.043-1.395,0.062c-0.437,0.018-0.873,0.038-1.311,0.05    c-0.937,0.025-1.876,0.041-2.818,0.041c-0.942,0-1.881-0.016-2.818-0.041c-0.438-0.012-0.874-0.032-1.311-0.05    c-0.465-0.018-0.93-0.037-1.394-0.062c-0.604-0.033-1.206-0.072-1.806-0.115c-0.245-0.017-0.49-0.035-0.735-0.054    C202.988,288.399,166.228,255.309,157.094,212.141z M302.125,318.868c-0.408,0.312-0.819,0.619-1.232,0.922    c-0.56,0.41-1.126,0.81-1.696,1.203c-0.414,0.286-0.828,0.572-1.247,0.849c-0.593,0.393-1.194,0.771-1.797,1.146    c-0.407,0.253-0.811,0.511-1.222,0.756c-0.655,0.391-1.32,0.763-1.986,1.133c-0.369,0.205-0.734,0.419-1.107,0.618    c-0.856,0.457-1.723,0.891-2.594,1.314c-0.191,0.093-0.379,0.195-0.571,0.286c-1.066,0.506-2.144,0.985-3.233,1.441    c-0.322,0.135-0.651,0.255-0.975,0.385c-0.772,0.311-1.546,0.618-2.328,0.902c-0.423,0.154-0.853,0.294-1.279,0.44    c-0.693,0.238-1.387,0.474-2.087,0.692c-0.463,0.144-0.931,0.277-1.397,0.413c-0.675,0.196-1.352,0.387-2.033,0.564    c-0.483,0.126-0.968,0.244-1.453,0.36c-0.676,0.162-1.355,0.315-2.036,0.458c-0.492,0.103-0.984,0.204-1.478,0.297    c-0.69,0.131-1.383,0.249-2.078,0.361c-0.489,0.079-0.977,0.159-1.468,0.228c-0.724,0.102-1.452,0.187-2.18,0.269    c-0.466,0.052-0.93,0.111-1.397,0.154c-0.806,0.075-1.617,0.128-2.428,0.179c-0.395,0.025-0.787,0.06-1.183,0.078    c-1.208,0.056-2.421,0.089-3.64,0.089c-1.218,0-2.431-0.033-3.639-0.089c-0.396-0.018-0.79-0.054-1.185-0.078    c-0.81-0.05-1.62-0.103-2.426-0.178c-0.468-0.044-0.934-0.102-1.4-0.155c-0.727-0.082-1.454-0.166-2.176-0.268    c-0.492-0.069-0.982-0.15-1.472-0.229c-0.693-0.112-1.385-0.229-2.073-0.36c-0.496-0.094-0.99-0.195-1.483-0.298    c-0.679-0.143-1.356-0.295-2.03-0.457c-0.488-0.117-0.975-0.235-1.459-0.361c-0.679-0.177-1.354-0.367-2.026-0.562    c-0.468-0.136-0.937-0.269-1.402-0.414c-0.699-0.218-1.391-0.453-2.082-0.691c-0.428-0.147-0.859-0.287-1.284-0.442    c-0.781-0.284-1.552-0.591-2.323-0.9c-0.326-0.131-0.656-0.251-0.98-0.387c-1.088-0.455-2.167-0.935-3.233-1.441    c-0.189-0.09-0.374-0.191-0.563-0.282c-0.875-0.424-1.745-0.86-2.603-1.319c-0.369-0.197-0.731-0.41-1.098-0.613    c-0.67-0.372-1.339-0.746-1.998-1.139c-0.407-0.243-0.807-0.497-1.21-0.748c-0.608-0.378-1.214-0.76-1.812-1.156    c-0.413-0.274-0.822-0.556-1.23-0.838c-0.576-0.398-1.149-0.802-1.715-1.217c-0.407-0.298-0.811-0.601-1.213-0.908    c-0.558-0.426-1.11-0.861-1.657-1.303c-0.391-0.316-0.781-0.632-1.167-0.956c-0.188-0.158-0.371-0.325-0.558-0.485    c0.133-0.224,0.266-0.452,0.401-0.688l0.059-0.107c0.28-0.493,0.55-0.993,0.819-1.507l0.173-0.337    c0.25-0.488,0.492-0.98,0.738-1.504l0.089-0.188c0.267-0.575,0.524-1.154,0.782-1.769l0.052-0.129    c0.213-0.512,0.416-1.026,0.612-1.543l0.155-0.419c0.172-0.467,0.336-0.934,0.518-1.475l0.094-0.278    c0.19-0.581,0.37-1.162,0.54-1.755l0.049-0.176c0.144-0.51,0.278-1.017,0.405-1.527l0.07-0.292    c0.039-0.162,0.074-0.325,0.111-0.487c0.078-0.34,0.156-0.679,0.229-1.031l0.076-0.369c0.035-0.175,0.063-0.349,0.096-0.523    c0.066-0.354,0.134-0.706,0.191-1.066c1.056,0.423,2.12,0.824,3.189,1.216c0.246,0.091,0.495,0.177,0.742,0.266    c0.544,0.195,1.089,0.39,1.636,0.577c0.594,0.204,1.191,0.4,1.789,0.595c0.206,0.067,0.411,0.135,0.617,0.201    c8.583,2.742,17.595,4.512,26.909,5.178c0.089,0.006,0.179,0.011,0.268,0.017c0.816,0.056,1.633,0.108,2.453,0.148    c0.34,0.017,0.68,0.025,1.02,0.039c0.587,0.023,1.174,0.049,1.763,0.064c0.95,0.023,1.901,0.036,2.852,0.036    s1.902-0.013,2.852-0.036c0.589-0.014,1.176-0.041,1.763-0.064c0.34-0.014,0.68-0.022,1.02-0.039    c0.815-0.039,1.627-0.091,2.437-0.146c0.096-0.007,0.191-0.011,0.287-0.018c9.309-0.665,18.316-2.434,26.894-5.174    c0.219-0.07,0.437-0.142,0.656-0.213c0.584-0.19,1.168-0.382,1.748-0.581c0.564-0.193,1.125-0.394,1.686-0.595    c0.231-0.083,0.463-0.164,0.693-0.249c1.072-0.392,2.139-0.795,3.199-1.219c0.064,0.394,0.137,0.786,0.211,1.175    c0.025,0.134,0.048,0.268,0.074,0.403l0.082,0.399c0.082,0.394,0.169,0.787,0.258,1.165c0.026,0.11,0.05,0.22,0.077,0.329    l0.074,0.307c0.126,0.505,0.259,1.01,0.395,1.489c0.013,0.049,0.036,0.133,0.058,0.208c0.168,0.586,0.35,1.172,0.532,1.726    l0.121,0.361c0.156,0.47,0.323,0.938,0.488,1.39l0.166,0.446c0.194,0.515,0.397,1.027,0.637,1.608    c0.014,0.033,0.027,0.067,0.041,0.1c0.246,0.583,0.502,1.163,0.776,1.752l0.097,0.202c0.232,0.492,0.472,0.98,0.737,1.5    l0.165,0.32c0.263,0.504,0.532,1.002,0.794,1.462c0.021,0.037,0.078,0.14,0.1,0.177c0.124,0.219,0.251,0.436,0.379,0.651    c-0.184,0.157-0.363,0.321-0.548,0.476c-0.393,0.331-0.792,0.654-1.191,0.976C303.218,318.019,302.674,318.448,302.125,318.868z     M303.621,336.049L256,462.232l-47.621-126.183c0.12,0.074,0.243,0.141,0.363,0.214c0.259,0.158,0.522,0.307,0.783,0.462    c0.919,0.546,1.846,1.075,2.782,1.587c0.304,0.167,0.608,0.335,0.914,0.498c1.159,0.617,2.327,1.213,3.511,1.778    c0.167,0.08,0.336,0.152,0.504,0.231c1.042,0.49,2.094,0.957,3.154,1.406c0.336,0.142,0.672,0.283,1.01,0.422    c1.138,0.466,2.282,0.914,3.439,1.333c0.092,0.033,0.182,0.071,0.274,0.104c1.239,0.444,2.491,0.853,3.749,1.243    c0.341,0.106,0.683,0.207,1.026,0.308c1.047,0.311,2.1,0.604,3.159,0.877c0.255,0.066,0.508,0.137,0.764,0.201    c1.275,0.317,2.559,0.604,3.85,0.866c0.313,0.064,0.628,0.119,0.942,0.18c1.052,0.202,2.109,0.385,3.171,0.551    c0.332,0.052,0.662,0.106,0.995,0.154c1.313,0.189,2.631,0.355,3.957,0.488c0.229,0.023,0.459,0.038,0.688,0.059    c1.134,0.105,2.272,0.188,3.414,0.251c0.365,0.02,0.731,0.04,1.097,0.056c1.354,0.059,2.712,0.1,4.076,0.1h0.001    c1.364,0,2.721-0.04,4.075-0.1c0.366-0.016,0.731-0.036,1.096-0.056c1.145-0.063,2.285-0.146,3.422-0.252    c0.226-0.021,0.454-0.036,0.679-0.058c1.328-0.133,2.649-0.299,3.964-0.489c0.328-0.047,0.655-0.102,0.982-0.152    c1.068-0.166,2.132-0.351,3.19-0.554c0.308-0.059,0.618-0.114,0.925-0.176c1.295-0.263,2.583-0.551,3.862-0.869    c0.249-0.062,0.495-0.132,0.743-0.196c1.068-0.275,2.13-0.57,3.185-0.884c0.335-0.1,0.671-0.198,1.005-0.302    c1.264-0.392,2.521-0.802,3.764-1.249c0.081-0.029,0.16-0.062,0.241-0.091c1.17-0.424,2.328-0.877,3.479-1.348    c0.328-0.135,0.655-0.272,0.982-0.41c1.078-0.457,2.148-0.931,3.208-1.43c0.151-0.071,0.304-0.137,0.454-0.208    c1.193-0.569,2.371-1.171,3.54-1.793c0.29-0.154,0.577-0.314,0.865-0.472c0.962-0.526,1.915-1.069,2.858-1.63    c0.238-0.142,0.479-0.279,0.716-0.423C303.365,336.198,303.494,336.127,303.621,336.049z M251.393,496.781v0.002l-64.088-79.373    l5.808-29.62c0.071-0.36,0.114-0.722,0.132-1.082c0.07-1.439-0.277-2.854-0.978-4.082c-0.525-0.921-1.249-1.737-2.144-2.379    l-57.471-41.243c8.146-33.617,41.323-41.033,65.186-41.842c-0.027,0.148-0.05,0.292-0.08,0.444l-0.052,0.248    c-0.005,0.022-0.01,0.044-0.014,0.066c-0.059,0.283-0.121,0.567-0.194,0.871l-0.076,0.318c-0.08,0.322-0.165,0.641-0.251,0.947    c-0.044,0.156-0.087,0.311-0.133,0.466c-0.099,0.336-0.205,0.678-0.337,1.077l-0.054,0.159c-0.111,0.33-0.226,0.659-0.344,0.98    c-0.001,0.002-0.035,0.094-0.036,0.096l-0.079,0.213c-0.103,0.273-0.213,0.545-0.323,0.816c-0.115,0.282-0.233,0.562-0.355,0.841    c-0.11,0.252-0.219,0.506-0.333,0.752c-0.236,0.508-0.484,1.008-0.743,1.499c-0.093,0.178-0.194,0.358-0.292,0.537    c-0.277,0.505-0.559,1.006-0.858,1.486c-0.008,0.013-0.018,0.03-0.026,0.043c-0.328,0.526-0.671,1.029-1.022,1.519    c-0.087,0.121-0.176,0.241-0.264,0.36c-0.348,0.469-0.703,0.926-1.07,1.352c-0.003,0.004-0.006,0.008-0.009,0.011    c-0.288,0.334-0.537,0.688-0.756,1.055c-0.058,0.084-0.118,0.161-0.175,0.249l-1.789,2.738c-1.31,2.005-1.585,4.515-0.739,6.756    l61.545,163.076c1.103,2.922,3.899,4.856,7.022,4.856c3.122,0,5.919-1.934,7.022-4.856l61.544-163.076    c0.844-2.237,0.573-4.741-0.732-6.745l-1.06-1.628c-0.016-0.025-0.038-0.056-0.054-0.081l-0.682-1.045    c-0.06-0.092-0.123-0.168-0.183-0.256c-0.218-0.362-0.464-0.712-0.748-1.042c-0.376-0.435-0.738-0.903-1.094-1.383    c-0.079-0.107-0.158-0.213-0.233-0.317c-0.347-0.484-0.686-0.984-1.012-1.503c-0.028-0.045-0.056-0.092-0.084-0.137    c-0.291-0.471-0.568-0.96-0.839-1.454c-0.092-0.169-0.186-0.338-0.274-0.504c-0.263-0.5-0.515-1.008-0.756-1.525    c-0.069-0.148-0.134-0.294-0.199-0.438c-0.174-0.388-0.336-0.782-0.497-1.177c-0.103-0.255-0.208-0.513-0.299-0.752l-0.117-0.318    c-0.019-0.05-0.037-0.104-0.056-0.155c-0.073-0.2-0.143-0.4-0.212-0.601c-0.036-0.105-0.07-0.202-0.109-0.319l-0.058-0.172    c-0.117-0.355-0.226-0.711-0.329-1.067c-0.038-0.129-0.074-0.257-0.11-0.385c-0.089-0.319-0.174-0.637-0.251-0.946l-0.081-0.34    c-0.067-0.279-0.127-0.558-0.187-0.843c-0.006-0.03-0.013-0.059-0.019-0.089l-0.053-0.256c-0.029-0.145-0.049-0.279-0.076-0.422    c23.862,0.809,57.041,8.227,65.187,41.842l-57.473,41.243c-0.597,0.428-1.117,0.933-1.553,1.495    c-1.309,1.686-1.86,3.885-1.436,6.047l5.808,29.62l-64.088,79.373H251.393z M469.078,496.991H409.08v-74.27    c0-4.144-3.359-7.504-7.504-7.504c-4.145,0-7.504,3.36-7.504,7.504v74.27h-114.34l58.841-72.874    c1.395-1.726,1.953-3.982,1.526-6.159l-5.553-28.324l57.495-41.259c0.067-0.049,0.135-0.099,0.2-0.15l15.99,4.986    c0.038,0.012,0.076,0.023,0.114,0.035c17.997,5.298,33.449,16.04,44.686,31.063s17.177,32.88,17.177,51.641v59.911h0.001    C470.209,496.484,469.702,496.991,469.078,496.991z" fill="#D80027"/>
	</g>
</g>
<g>
</g>
<g>
</g>
<g>
</g>
<g>
</g>
<g>
</g>
<g>
</g>
<g>
</g>
<g>
</g>
<g>
</g>
<g>
</g>
<g>
</g>
<g>
</g>
<g>
</g>
<g>
</g>
<g>
</g>
</svg>
